<?xml version="1.0" encoding="UTF-8"?>
<svg id="Layer_2" data-name="Layer 2" xmlns="http://www.w3.org/2000/svg" viewBox="0 0 464 464">
  <defs>
    <style>
      .cls-1 {
        fill: #ffd500;
      }
    </style>
  </defs>
  <g id="Layer_1-2" data-name="Layer 1">
    <g>
      <path class="cls-1" d="M199.98,192c5.03,6.69,8.02,15,8.02,24v12.17c15.58-4.9,32.42-4.9,48,0v-12.17c0-9,2.99-17.31,8.02-24h-64.04Z"/>
      <rect class="cls-1" x="192" y="144" width="32" height="32"/>
      <path class="cls-1" d="M256,260.17v-14.99c-15.33-6.24-32.67-6.24-48,0v14.99c15.58-4.9,32.42-4.9,48,0Z"/>
      <rect class="cls-1" x="48" y="144" width="32" height="32"/>
      <path class="cls-1" d="M88,336h80c13.23,0,24-10.77,24-24v-96c0-13.23-10.77-24-24-24h-80c-13.23,0-24,10.77-24,24v96c0,13.23,10.77,24,24,24ZM136,272h-16c-13.23,0-24-10.77-24-24s10.77-24,24-24v-16h16v16c13.23,0,24,10.77,24,24h-16c0-4.41-3.59-8-8-8h-16c-4.41,0-8,3.59-8,8s3.59,8,8,8h16c13.23,0,24,10.77,24,24s-10.77,24-24,24v16h-16v-16c-13.23,0-24-10.77-24-24h16c0,4.41,3.59,8,8,8h16c4.41,0,8-3.59,8-8s-3.59-8-8-8Z"/>
      <path class="cls-1" d="M224,0h-24C119.48,0,48.82,52.13,24.68,128h199.32V0Z"/>
      <rect class="cls-1" x="384" y="144" width="32" height="32"/>
      <path class="cls-1" d="M208,312c0,3.45-.44,6.79-1.26,9.98,8.32-1.31,16.77-1.98,25.26-1.98s16.94.67,25.26,1.98c-.82-3.19-1.26-6.54-1.26-9.98v-34.82c-15.33-6.23-32.67-6.23-48,0v34.82Z"/>
      <rect class="cls-1" x="96" y="144" width="32" height="32"/>
      <path class="cls-1" d="M264,0h-24v128h199.32C415.17,52.13,344.52,0,264,0ZM271.6,32.19l.79-15.98c45.95,2.28,89.46,23.63,119.38,58.59l-12.16,10.4c-27.06-31.63-66.43-50.95-108.01-53.01ZM391.05,100.4l13.36-8.8c3.55,5.39,6.81,11.04,9.71,16.81l-14.3,7.19c-2.62-5.21-5.57-10.32-8.78-15.19Z"/>
      <rect class="cls-1" x="336" y="144" width="32" height="32"/>
      <polygon class="cls-1" points="296 176 320 176 320 144 288 144 288 176 296 176"/>
      <rect class="cls-1" x="240" y="144" width="32" height="32"/>
      <path class="cls-1" d="M298.2,352h-2.2c-10.91,0-20.81-4.4-28.03-11.5-11.68-2.97-23.77-4.5-35.97-4.5s-24.29,1.52-35.97,4.5c-7.22,7.11-17.12,11.5-28.03,11.5h-2.2c-13.78,7.14-26.32,16.45-37.27,27.76-14.34,14.8-25.07,31.98-31.97,51.11,4.08,4.11,8.47,7.9,13.14,11.34,7.38-23.82,21.72-45.25,41.17-61.21,22.79-18.7,51.6-29,81.13-29s58.34,10.3,81.13,29c19.45,15.96,33.8,37.39,41.17,61.21,4.67-3.44,9.06-7.23,13.14-11.34-6.9-19.13-17.63-36.31-31.97-51.11-10.95-11.31-23.49-20.62-37.27-27.76Z"/>
      <path class="cls-1" d="M376,192h-80c-13.23,0-24,10.77-24,24v96c0,13.23,10.77,24,24,24h80c13.23,0,24-10.77,24-24v-96c0-13.23-10.77-24-24-24ZM328,256h16c13.23,0,24,10.77,24,24s-10.77,24-24,24v16h-16v-16c-13.23,0-24-10.77-24-24h16c0,4.41,3.59,8,8,8h16c4.41,0,8-3.59,8-8s-3.59-8-8-8h-16c-13.23,0-24-10.77-24-24s10.77-24,24-24v-16h16v16c13.23,0,24,10.77,24,24h-16c0-4.41-3.59-8-8-8h-16c-4.41,0-8,3.59-8,8s3.59,8,8,8Z"/>
      <path class="cls-1" d="M328.15,352c6.65,5.02,12.94,10.56,18.81,16.62,13.79,14.24,24.58,30.46,32.21,48.36,13.11-18.34,20.83-40.77,20.83-64.98v-8.02c-6.69,5.03-15,8.02-24,8.02h-47.85Z"/>
      <path class="cls-1" d="M424,240h-8v48h8c13.23,0,24-10.77,24-24s-10.77-24-24-24Z"/>
      <polygon class="cls-1" points="176 176 176 144 144 144 144 176 168 176 176 176"/>
      <path class="cls-1" d="M232,368c-50.68,0-95.26,34.6-108.2,83.06,15.6,8.25,33.36,12.94,52.2,12.94h112c18.84,0,36.61-4.68,52.2-12.94-12.94-48.46-57.52-83.06-108.2-83.06ZM279.52,394.9c-5.46,21.85-25,37.1-47.52,37.1s-42.06-15.26-47.52-37.1l-.24-.95,15.52-3.88.24.95c3.68,14.71,16.84,24.99,32,24.99s28.32-10.27,32-24.98l.24-.95,15.52,3.88-.24.95Z"/>
      <path class="cls-1" d="M456,144h-24v32h24c4.41,0,8-3.59,8-8v-16c0-4.41-3.59-8-8-8Z"/>
      <path class="cls-1" d="M416,216v8h8c9,0,17.31,2.99,24,8.02v-40.02h-40.02c5.03,6.69,8.02,15,8.02,24Z"/>
      <path class="cls-1" d="M16,232.02c6.69-5.03,15-8.02,24-8.02h8v-8c0-9,2.99-17.31,8.02-24H16v40.02Z"/>
      <path class="cls-1" d="M16,264c0,13.23,10.77,24,24,24h8v-48h-8c-13.23,0-24,10.77-24,24Z"/>
      <path class="cls-1" d="M135.85,352h-47.85c-9,0-17.31-2.99-24-8.02v8.02c0,24.21,7.72,46.64,20.83,64.98,7.63-17.9,18.42-34.12,32.21-48.36,5.87-6.06,12.16-11.61,18.81-16.62Z"/>
      <path class="cls-1" d="M32,144H8c-4.41,0-8,3.59-8,8v16c0,4.41,3.59,8,8,8h24v-32Z"/>
    </g>
  </g>
</svg>